# xmcd
#
# Track frame offsets:
#	150
#	15543
#	30925
#	48165
#	63430
#	84183
#	101740
#	117820
#	143715
#	176655
#
# Disc length: 2592 seconds
#
# Revision: 0
# Processed by: cddbd v1.5.1PL0 Copyright (c) Steve Scherf et al.
# Submitted via: dBpowerAMP V4.0
#
DISCID=710a1e0a
DTITLE=Various Artist - Mega Dance 2 - CD 2
DYEAR=1994
DGENRE=Dance
TTITLE0=Doop (Jean Lejeux Et Son Orchestre) - Doop
TTITLE1=Move On Babe - Cappella
TTITLE2=I Want To Thank You - Robin S
TTITLE3=Get Off Your High Horse - Rollo Goes Camping
TTITLE4=Africa - Dynamic Base
TTITLE5=I Got The Music In Me - Mount Rushmore
TTITLE6=Feel So Good - THK
TTITLE7=Desire (Trance Mix) - Honey C
TTITLE8=Sister Golden Hair - Spanic
TTITLE9=Megadance Megamix (Radio Edit) - Megadance
EXTD=http://fedion.jouwpagina.nl
EXTT0=
EXTT1=
EXTT2=
EXTT3=
EXTT4=
EXTT5=
EXTT6=
EXTT7=
EXTT8=
EXTT9=
PLAYORDER=
